<mxfile host="app.diagrams.net" modified="2021-10-27T14:45:13.150Z" agent="5.0 (Windows NT 10.0; Win64; x64) AppleWebKit/537.36 (KHTML, like Gecko) Chrome/95.0.4638.54 Safari/537.36 Edg/95.0.1020.30" etag="fDEwCyIvrOT2hcdFJX-j" version="15.5.9" type="github">
  <diagram id="r_qnH1HllNbgKLjlJHCZ" name="Page-1">
    <mxGraphModel dx="1929" dy="614" grid="1" gridSize="10" guides="1" tooltips="1" connect="1" arrows="1" fold="1" page="1" pageScale="1" pageWidth="827" pageHeight="1169" math="0" shadow="0">
      <root>
        <mxCell id="0" />
        <mxCell id="1" parent="0" />
        <mxCell id="hRQEvWgmlyqltlo27F5b-73" value="" style="endArrow=none;html=1;strokeWidth=1;endFill=0;" parent="1" source="r-15waiu_1S-d-hb9AJj-36" target="hRQEvWgmlyqltlo27F5b-71" edge="1">
          <mxGeometry width="50" height="50" relative="1" as="geometry">
            <mxPoint x="553" y="686" as="sourcePoint" />
            <mxPoint x="603" y="636" as="targetPoint" />
          </mxGeometry>
        </mxCell>
        <mxCell id="hRQEvWgmlyqltlo27F5b-68" value="" style="endArrow=none;html=1;strokeWidth=1;endFill=0;" parent="1" source="r-15waiu_1S-d-hb9AJj-36" target="hRQEvWgmlyqltlo27F5b-67" edge="1">
          <mxGeometry width="50" height="50" relative="1" as="geometry">
            <mxPoint x="553" y="766" as="sourcePoint" />
            <mxPoint x="603" y="716" as="targetPoint" />
          </mxGeometry>
        </mxCell>
        <mxCell id="hRQEvWgmlyqltlo27F5b-56" value="" style="endArrow=none;html=1;strokeWidth=1;endFill=0;" parent="1" source="r-15waiu_1S-d-hb9AJj-36" target="hRQEvWgmlyqltlo27F5b-53" edge="1">
          <mxGeometry width="50" height="50" relative="1" as="geometry">
            <mxPoint x="553" y="616" as="sourcePoint" />
            <mxPoint x="603" y="566" as="targetPoint" />
          </mxGeometry>
        </mxCell>
        <mxCell id="hRQEvWgmlyqltlo27F5b-21" value="" style="endArrow=none;html=1;endFill=0;" parent="1" source="lHqvFT1bvPYRfDelncX7-2" target="lHqvFT1bvPYRfDelncX7-4" edge="1">
          <mxGeometry width="50" height="50" relative="1" as="geometry">
            <mxPoint x="681" y="376" as="sourcePoint" />
            <mxPoint x="731" y="326" as="targetPoint" />
          </mxGeometry>
        </mxCell>
        <mxCell id="r-15waiu_1S-d-hb9AJj-67" value="" style="endArrow=none;html=1;fontSize=12;endFill=0;" parent="1" source="r-15waiu_1S-d-hb9AJj-58" target="r-15waiu_1S-d-hb9AJj-68" edge="1">
          <mxGeometry width="50" height="50" relative="1" as="geometry">
            <mxPoint x="1176" y="296.2848101265822" as="sourcePoint" />
            <mxPoint x="1076" y="297" as="targetPoint" />
          </mxGeometry>
        </mxCell>
        <mxCell id="lHqvFT1bvPYRfDelncX7-2" value="&lt;b&gt;Посетитель&lt;/b&gt;" style="shape=umlActor;verticalLabelPosition=bottom;verticalAlign=top;html=1;outlineConnect=0;hachureGap=4;pointerEvents=0;strokeWidth=2;" parent="1" vertex="1">
          <mxGeometry x="-320" y="240" width="30" height="60" as="geometry" />
        </mxCell>
        <mxCell id="lHqvFT1bvPYRfDelncX7-4" value="&lt;font style=&quot;font-size: 12px&quot; face=&quot;Verdana&quot;&gt;вход на сайт&lt;/font&gt;" style="rounded=0;whiteSpace=wrap;html=1;hachureGap=4;pointerEvents=0;strokeWidth=1;fillColor=#fff2cc;strokeColor=#d6b656;" parent="1" vertex="1">
          <mxGeometry x="-260" y="250" width="80" height="40" as="geometry" />
        </mxCell>
        <mxCell id="r-15waiu_1S-d-hb9AJj-36" value="&lt;b&gt;Администратор&lt;/b&gt;" style="shape=umlActor;verticalLabelPosition=bottom;verticalAlign=top;html=1;outlineConnect=0;fontSize=12;strokeWidth=2;" parent="1" vertex="1">
          <mxGeometry x="580" y="696" width="30" height="60" as="geometry" />
        </mxCell>
        <mxCell id="r-15waiu_1S-d-hb9AJj-58" value="&lt;b&gt;Тренер&lt;/b&gt;" style="shape=umlActor;verticalLabelPosition=bottom;verticalAlign=top;html=1;outlineConnect=0;fontSize=12;strokeWidth=2;" parent="1" vertex="1">
          <mxGeometry x="1211" y="179" width="30" height="60" as="geometry" />
        </mxCell>
        <mxCell id="-6DadGu_WhrOCrPKGqgH-32" style="edgeStyle=none;rounded=1;jumpStyle=arc;jumpSize=12;orthogonalLoop=1;jettySize=auto;html=1;" parent="1" source="r-15waiu_1S-d-hb9AJj-68" target="-6DadGu_WhrOCrPKGqgH-31" edge="1">
          <mxGeometry relative="1" as="geometry" />
        </mxCell>
        <mxCell id="r-15waiu_1S-d-hb9AJj-68" value="&lt;font face=&quot;Verdana&quot;&gt;вход в личный кабинет&lt;/font&gt;" style="rounded=0;whiteSpace=wrap;html=1;hachureGap=4;pointerEvents=0;strokeWidth=1;fillColor=#f5f5f5;strokeColor=#666666;fontColor=#333333;" parent="1" vertex="1">
          <mxGeometry x="983" y="189" width="100" height="40" as="geometry" />
        </mxCell>
        <mxCell id="hRQEvWgmlyqltlo27F5b-6" value="&lt;font face=&quot;Verdana&quot;&gt;расписание тренировок&lt;/font&gt;" style="whiteSpace=wrap;html=1;rounded=0;strokeWidth=1;hachureGap=4;fillColor=#fff2cc;strokeColor=#d6b656;" parent="1" vertex="1">
          <mxGeometry x="5" y="350" width="100" height="43" as="geometry" />
        </mxCell>
        <mxCell id="hRQEvWgmlyqltlo27F5b-8" value="&lt;font face=&quot;Verdana&quot;&gt;свободные даты&lt;/font&gt;" style="whiteSpace=wrap;html=1;rounded=0;strokeWidth=1;hachureGap=4;fillColor=#fff2cc;strokeColor=#d6b656;" parent="1" vertex="1">
          <mxGeometry x="5" y="416.5" width="100" height="30" as="geometry" />
        </mxCell>
        <mxCell id="hRQEvWgmlyqltlo27F5b-16" value="" style="endArrow=classic;html=1;entryX=0.5;entryY=0;entryDx=0;entryDy=0;exitX=0.5;exitY=1;exitDx=0;exitDy=0;" parent="1" source="hRQEvWgmlyqltlo27F5b-6" target="hRQEvWgmlyqltlo27F5b-8" edge="1">
          <mxGeometry width="50" height="50" relative="1" as="geometry">
            <mxPoint x="633" y="177" as="sourcePoint" />
            <mxPoint x="683" y="127" as="targetPoint" />
          </mxGeometry>
        </mxCell>
        <mxCell id="hRQEvWgmlyqltlo27F5b-19" value="&lt;font face=&quot;Verdana&quot;&gt;информация о&amp;nbsp;&lt;br&gt;тренерах&lt;/font&gt;" style="html=1;dashed=0;whitespace=wrap;shape=partialRectangle;right=0;fontSize=12;strokeWidth=1;fillColor=#f8cecc;strokeColor=#b85450;" parent="1" vertex="1">
          <mxGeometry x="231" y="356.5" width="100" height="30" as="geometry" />
        </mxCell>
        <mxCell id="hRQEvWgmlyqltlo27F5b-22" value="&lt;font face=&quot;Verdana&quot;&gt;индивидуальное расписание&lt;/font&gt;" style="rounded=0;whiteSpace=wrap;html=1;hachureGap=4;pointerEvents=0;strokeWidth=1;fillColor=#f5f5f5;strokeColor=#666666;fontColor=#333333;" parent="1" vertex="1">
          <mxGeometry x="979" y="371" width="107" height="40" as="geometry" />
        </mxCell>
        <mxCell id="hRQEvWgmlyqltlo27F5b-24" value="" style="endArrow=classic;html=1;entryX=0.5;entryY=0;entryDx=0;entryDy=0;" parent="1" source="-6DadGu_WhrOCrPKGqgH-31" target="hRQEvWgmlyqltlo27F5b-22" edge="1">
          <mxGeometry width="50" height="50" relative="1" as="geometry">
            <mxPoint x="820" y="325" as="sourcePoint" />
            <mxPoint x="1030" y="375" as="targetPoint" />
          </mxGeometry>
        </mxCell>
        <mxCell id="hRQEvWgmlyqltlo27F5b-27" value="" style="endArrow=classic;html=1;entryX=0.5;entryY=0;entryDx=0;entryDy=0;exitX=0.5;exitY=1;exitDx=0;exitDy=0;" parent="1" source="hRQEvWgmlyqltlo27F5b-22" target="hRQEvWgmlyqltlo27F5b-31" edge="1">
          <mxGeometry width="50" height="50" relative="1" as="geometry">
            <mxPoint x="820" y="325" as="sourcePoint" />
            <mxPoint x="1032.5" y="495" as="targetPoint" />
          </mxGeometry>
        </mxCell>
        <mxCell id="LkH43tqCNbyHTfC8qqBF-4" style="edgeStyle=orthogonalEdgeStyle;rounded=0;orthogonalLoop=1;jettySize=auto;html=1;endArrow=classic;endFill=1;" parent="1" source="hRQEvWgmlyqltlo27F5b-28" target="hRQEvWgmlyqltlo27F5b-37" edge="1">
          <mxGeometry relative="1" as="geometry">
            <mxPoint x="840" y="515" as="targetPoint" />
          </mxGeometry>
        </mxCell>
        <mxCell id="hRQEvWgmlyqltlo27F5b-28" value="&lt;font face=&quot;Verdana&quot;&gt;запись на тренировку&lt;/font&gt;" style="whiteSpace=wrap;html=1;rounded=0;strokeWidth=1;hachureGap=4;fillColor=#fff2cc;strokeColor=#d6b656;" parent="1" vertex="1">
          <mxGeometry x="5" y="496" width="100" height="30" as="geometry" />
        </mxCell>
        <mxCell id="hRQEvWgmlyqltlo27F5b-30" value="" style="endArrow=classic;html=1;exitX=0.5;exitY=1;exitDx=0;exitDy=0;entryX=0.5;entryY=0;entryDx=0;entryDy=0;" parent="1" source="hRQEvWgmlyqltlo27F5b-8" target="hRQEvWgmlyqltlo27F5b-28" edge="1">
          <mxGeometry width="50" height="50" relative="1" as="geometry">
            <mxPoint x="553" y="576" as="sourcePoint" />
            <mxPoint x="603" y="526" as="targetPoint" />
          </mxGeometry>
        </mxCell>
        <mxCell id="hRQEvWgmlyqltlo27F5b-31" value="" style="rhombus;whiteSpace=wrap;html=1;fillColor=#f5f5f5;strokeColor=#666666;fontColor=#333333;" parent="1" vertex="1">
          <mxGeometry x="1004.5" y="496" width="57" height="50" as="geometry" />
        </mxCell>
        <mxCell id="hRQEvWgmlyqltlo27F5b-33" value="" style="endArrow=classic;html=1;rounded=0;entryX=0.5;entryY=0;entryDx=0;entryDy=0;edgeStyle=orthogonalEdgeStyle;" parent="1" source="hRQEvWgmlyqltlo27F5b-31" target="hRQEvWgmlyqltlo27F5b-34" edge="1">
          <mxGeometry width="50" height="50" relative="1" as="geometry">
            <mxPoint x="1061.5" y="490" as="sourcePoint" />
            <mxPoint x="1116.5" y="535" as="targetPoint" />
          </mxGeometry>
        </mxCell>
        <mxCell id="hRQEvWgmlyqltlo27F5b-34" value="&lt;font face=&quot;Verdana&quot;&gt;свободные даты&lt;/font&gt;" style="rounded=0;whiteSpace=wrap;html=1;fillColor=#f5f5f5;strokeColor=#666666;fontColor=#333333;" parent="1" vertex="1">
          <mxGeometry x="1066" y="566" width="110" height="45" as="geometry" />
        </mxCell>
        <mxCell id="hRQEvWgmlyqltlo27F5b-35" value="" style="endArrow=classic;html=1;rounded=0;exitX=0;exitY=0.5;exitDx=0;exitDy=0;entryX=0.5;entryY=0;entryDx=0;entryDy=0;edgeStyle=orthogonalEdgeStyle;" parent="1" source="hRQEvWgmlyqltlo27F5b-31" target="hRQEvWgmlyqltlo27F5b-36" edge="1">
          <mxGeometry width="50" height="50" relative="1" as="geometry">
            <mxPoint x="1050.5" y="500" as="sourcePoint" />
            <mxPoint x="940" y="535" as="targetPoint" />
          </mxGeometry>
        </mxCell>
        <mxCell id="hRQEvWgmlyqltlo27F5b-36" value="&lt;font face=&quot;Verdana&quot;&gt;занятые даты&lt;/font&gt;" style="rounded=0;whiteSpace=wrap;html=1;fillColor=#f5f5f5;strokeColor=#666666;fontColor=#333333;" parent="1" vertex="1">
          <mxGeometry x="894.5" y="566" width="110" height="45" as="geometry" />
        </mxCell>
        <mxCell id="LkH43tqCNbyHTfC8qqBF-10" style="edgeStyle=orthogonalEdgeStyle;rounded=0;orthogonalLoop=1;jettySize=auto;html=1;endArrow=classic;endFill=1;" parent="1" source="hRQEvWgmlyqltlo27F5b-37" target="hRQEvWgmlyqltlo27F5b-53" edge="1">
          <mxGeometry relative="1" as="geometry">
            <Array as="points">
              <mxPoint x="770" y="600" />
              <mxPoint x="770" y="600" />
            </Array>
          </mxGeometry>
        </mxCell>
        <mxCell id="hRQEvWgmlyqltlo27F5b-37" value="&lt;font face=&quot;Verdana&quot;&gt;информация&lt;br&gt;&amp;nbsp;о записавшихся&lt;br&gt;&amp;nbsp;посетителях&lt;/font&gt;" style="html=1;dashed=0;whitespace=wrap;shape=partialRectangle;right=0;fontSize=12;strokeWidth=1;fillColor=#f8cecc;strokeColor=#b85450;" parent="1" vertex="1">
          <mxGeometry x="750" y="571" width="115" height="40" as="geometry" />
        </mxCell>
        <mxCell id="hRQEvWgmlyqltlo27F5b-43" value="" style="rhombus;whiteSpace=wrap;html=1;strokeWidth=1;fillColor=#e1d5e7;strokeColor=#9673a6;" parent="1" vertex="1">
          <mxGeometry x="303" y="701" width="50" height="50" as="geometry" />
        </mxCell>
        <mxCell id="hRQEvWgmlyqltlo27F5b-44" value="" style="endArrow=classic;html=1;strokeWidth=1;entryX=1;entryY=0.5;entryDx=0;entryDy=0;exitX=0;exitY=0.5;exitDx=0;exitDy=0;" parent="1" source="hRQEvWgmlyqltlo27F5b-46" target="hRQEvWgmlyqltlo27F5b-43" edge="1">
          <mxGeometry width="50" height="50" relative="1" as="geometry">
            <mxPoint x="439" y="796" as="sourcePoint" />
            <mxPoint x="599" y="576" as="targetPoint" />
          </mxGeometry>
        </mxCell>
        <mxCell id="hRQEvWgmlyqltlo27F5b-45" value="" style="endArrow=none;html=1;strokeWidth=1;endFill=0;" parent="1" source="r-15waiu_1S-d-hb9AJj-36" target="hRQEvWgmlyqltlo27F5b-46" edge="1">
          <mxGeometry width="50" height="50" relative="1" as="geometry">
            <mxPoint x="549" y="626" as="sourcePoint" />
            <mxPoint x="599" y="576" as="targetPoint" />
          </mxGeometry>
        </mxCell>
        <mxCell id="hRQEvWgmlyqltlo27F5b-46" value="управление абонементами" style="rounded=0;whiteSpace=wrap;html=1;fillColor=#e1d5e7;strokeColor=#9673a6;" parent="1" vertex="1">
          <mxGeometry x="411" y="706" width="100" height="40" as="geometry" />
        </mxCell>
        <mxCell id="-6DadGu_WhrOCrPKGqgH-18" style="edgeStyle=orthogonalEdgeStyle;rounded=1;jumpStyle=arc;jumpSize=12;orthogonalLoop=1;jettySize=auto;html=1;" parent="1" source="hRQEvWgmlyqltlo27F5b-47" target="-6DadGu_WhrOCrPKGqgH-16" edge="1">
          <mxGeometry relative="1" as="geometry" />
        </mxCell>
        <mxCell id="hRQEvWgmlyqltlo27F5b-47" value="&lt;font style=&quot;font-size: 12px&quot; face=&quot;Verdana&quot;&gt;продление старых&lt;/font&gt;" style="rounded=0;whiteSpace=wrap;html=1;strokeWidth=1;fillColor=#e1d5e7;strokeColor=#9673a6;" parent="1" vertex="1">
          <mxGeometry x="153" y="651" width="120" height="40" as="geometry" />
        </mxCell>
        <mxCell id="LkH43tqCNbyHTfC8qqBF-18" style="edgeStyle=orthogonalEdgeStyle;rounded=0;orthogonalLoop=1;jettySize=auto;html=1;endArrow=classic;endFill=1;" parent="1" source="LkH43tqCNbyHTfC8qqBF-16" target="hRQEvWgmlyqltlo27F5b-47" edge="1">
          <mxGeometry relative="1" as="geometry">
            <mxPoint x="320" y="1000" as="targetPoint" />
          </mxGeometry>
        </mxCell>
        <mxCell id="-6DadGu_WhrOCrPKGqgH-15" style="edgeStyle=orthogonalEdgeStyle;rounded=1;jumpStyle=arc;jumpSize=12;orthogonalLoop=1;jettySize=auto;html=1;" parent="1" source="hRQEvWgmlyqltlo27F5b-48" target="LkH43tqCNbyHTfC8qqBF-16" edge="1">
          <mxGeometry relative="1" as="geometry" />
        </mxCell>
        <mxCell id="hRQEvWgmlyqltlo27F5b-48" value="&lt;font face=&quot;Verdana&quot;&gt;выдача новых&lt;/font&gt;" style="rounded=0;whiteSpace=wrap;html=1;strokeWidth=1;fillColor=#e1d5e7;strokeColor=#9673a6;" parent="1" vertex="1">
          <mxGeometry x="153" y="783.5" width="120" height="40" as="geometry" />
        </mxCell>
        <mxCell id="hRQEvWgmlyqltlo27F5b-51" value="" style="endArrow=classic;html=1;strokeWidth=1;exitX=0.5;exitY=0;exitDx=0;exitDy=0;entryX=1;entryY=0.5;entryDx=0;entryDy=0;" parent="1" source="hRQEvWgmlyqltlo27F5b-43" target="hRQEvWgmlyqltlo27F5b-47" edge="1">
          <mxGeometry width="50" height="50" relative="1" as="geometry">
            <mxPoint x="549" y="626" as="sourcePoint" />
            <mxPoint x="229" y="706" as="targetPoint" />
            <Array as="points">
              <mxPoint x="328" y="671" />
            </Array>
          </mxGeometry>
        </mxCell>
        <mxCell id="hRQEvWgmlyqltlo27F5b-52" value="" style="endArrow=classic;html=1;strokeWidth=1;exitX=0.5;exitY=1;exitDx=0;exitDy=0;entryX=1;entryY=0.5;entryDx=0;entryDy=0;" parent="1" source="hRQEvWgmlyqltlo27F5b-43" target="hRQEvWgmlyqltlo27F5b-48" edge="1">
          <mxGeometry width="50" height="50" relative="1" as="geometry">
            <mxPoint x="549" y="626" as="sourcePoint" />
            <mxPoint x="599" y="576" as="targetPoint" />
            <Array as="points">
              <mxPoint x="328" y="804" />
            </Array>
          </mxGeometry>
        </mxCell>
        <mxCell id="LkH43tqCNbyHTfC8qqBF-8" style="edgeStyle=orthogonalEdgeStyle;rounded=0;orthogonalLoop=1;jettySize=auto;html=1;endArrow=classic;endFill=1;" parent="1" source="hRQEvWgmlyqltlo27F5b-53" target="LkH43tqCNbyHTfC8qqBF-7" edge="1">
          <mxGeometry relative="1" as="geometry" />
        </mxCell>
        <mxCell id="hRQEvWgmlyqltlo27F5b-53" value="&lt;font face=&quot;Verdana&quot;&gt;составление расписания&lt;/font&gt;" style="rounded=0;whiteSpace=wrap;html=1;strokeWidth=1;fillColor=#e1d5e7;strokeColor=#9673a6;" parent="1" vertex="1">
          <mxGeometry x="535" y="561" width="120" height="60" as="geometry" />
        </mxCell>
        <mxCell id="hRQEvWgmlyqltlo27F5b-58" value="&lt;font face=&quot;Verdana&quot;&gt;написание отзыва&lt;/font&gt;" style="whiteSpace=wrap;html=1;dashed=0;strokeWidth=1;fillColor=#fff2cc;strokeColor=#d6b656;" parent="1" vertex="1">
          <mxGeometry x="241" y="446.5" width="80" height="33.5" as="geometry" />
        </mxCell>
        <mxCell id="hRQEvWgmlyqltlo27F5b-60" value="" style="endArrow=classic;html=1;strokeWidth=1;entryX=0.5;entryY=0;entryDx=0;entryDy=0;" parent="1" source="hRQEvWgmlyqltlo27F5b-19" target="hRQEvWgmlyqltlo27F5b-58" edge="1">
          <mxGeometry width="50" height="50" relative="1" as="geometry">
            <mxPoint x="483" y="486" as="sourcePoint" />
            <mxPoint x="533" y="436" as="targetPoint" />
          </mxGeometry>
        </mxCell>
        <mxCell id="hRQEvWgmlyqltlo27F5b-62" value="&lt;font face=&quot;Verdana&quot;&gt;рейтинг исходя из отзывов&lt;/font&gt;" style="rounded=0;whiteSpace=wrap;html=1;strokeWidth=1;fillColor=#f5f5f5;strokeColor=#666666;fontColor=#333333;" parent="1" vertex="1">
          <mxGeometry x="680" y="274" width="120" height="50" as="geometry" />
        </mxCell>
        <mxCell id="hRQEvWgmlyqltlo27F5b-63" value="" style="endArrow=classic;html=1;strokeWidth=1;" parent="1" source="-6DadGu_WhrOCrPKGqgH-31" target="hRQEvWgmlyqltlo27F5b-62" edge="1">
          <mxGeometry width="50" height="50" relative="1" as="geometry">
            <mxPoint x="693" y="556" as="sourcePoint" />
            <mxPoint x="850" y="380" as="targetPoint" />
          </mxGeometry>
        </mxCell>
        <mxCell id="hRQEvWgmlyqltlo27F5b-66" value="" style="endArrow=classic;html=1;strokeWidth=1;exitX=0.5;exitY=0;exitDx=0;exitDy=0;jumpStyle=arc;edgeStyle=orthogonalEdgeStyle;" parent="1" source="hRQEvWgmlyqltlo27F5b-19" target="hRQEvWgmlyqltlo27F5b-62" edge="1">
          <mxGeometry width="50" height="50" relative="1" as="geometry">
            <mxPoint x="608" y="311" as="sourcePoint" />
            <mxPoint x="703" y="311" as="targetPoint" />
            <Array as="points">
              <mxPoint x="281" y="300" />
            </Array>
          </mxGeometry>
        </mxCell>
        <mxCell id="hRQEvWgmlyqltlo27F5b-67" value="&lt;font face=&quot;Verdana&quot;&gt;составление ленты новостей&lt;/font&gt;" style="rounded=0;whiteSpace=wrap;html=1;strokeWidth=1;fillColor=#e1d5e7;strokeColor=#9673a6;" parent="1" vertex="1">
          <mxGeometry x="406.5" y="780" width="109" height="35" as="geometry" />
        </mxCell>
        <mxCell id="hRQEvWgmlyqltlo27F5b-71" value="&lt;font face=&quot;Verdana&quot;&gt;запрос отзыва&lt;/font&gt;" style="rounded=0;whiteSpace=wrap;html=1;strokeWidth=1;fillColor=#e1d5e7;strokeColor=#9673a6;" parent="1" vertex="1">
          <mxGeometry x="231" y="546" width="100" height="40" as="geometry" />
        </mxCell>
        <mxCell id="hRQEvWgmlyqltlo27F5b-76" style="edgeStyle=elbowEdgeStyle;rounded=0;jumpStyle=arc;orthogonalLoop=1;jettySize=auto;html=1;exitX=1;exitY=0.5;exitDx=0;exitDy=0;strokeWidth=1;fillColor=#f8cecc;strokeColor=#b85450;" parent="1" edge="1">
          <mxGeometry relative="1" as="geometry">
            <mxPoint x="990" y="856" as="sourcePoint" />
            <mxPoint x="990" y="856" as="targetPoint" />
          </mxGeometry>
        </mxCell>
        <mxCell id="hRQEvWgmlyqltlo27F5b-78" value="лента новостей" style="html=1;dashed=0;whitespace=wrap;shape=partialRectangle;right=0;fontSize=12;strokeWidth=1;fillColor=#f8cecc;strokeColor=#b85450;" parent="1" vertex="1">
          <mxGeometry x="417" y="930" width="88" height="40" as="geometry" />
        </mxCell>
        <mxCell id="LkH43tqCNbyHTfC8qqBF-11" style="edgeStyle=orthogonalEdgeStyle;rounded=1;orthogonalLoop=1;jettySize=auto;html=1;endArrow=classic;endFill=1;" parent="1" source="LkH43tqCNbyHTfC8qqBF-7" target="hRQEvWgmlyqltlo27F5b-36" edge="1">
          <mxGeometry relative="1" as="geometry">
            <Array as="points">
              <mxPoint x="920" y="465" />
            </Array>
          </mxGeometry>
        </mxCell>
        <mxCell id="LkH43tqCNbyHTfC8qqBF-7" value="расписание" style="html=1;dashed=0;whitespace=wrap;shape=partialRectangle;right=0;fillColor=#f8cecc;strokeColor=#b85450;" parent="1" vertex="1">
          <mxGeometry x="545" y="450" width="100" height="30" as="geometry" />
        </mxCell>
        <mxCell id="LkH43tqCNbyHTfC8qqBF-13" value="отзыв" style="html=1;dashed=0;whitespace=wrap;shape=partialRectangle;right=0;fillColor=#f8cecc;strokeColor=#b85450;" parent="1" vertex="1">
          <mxGeometry x="360" y="448.25" width="100" height="30" as="geometry" />
        </mxCell>
        <mxCell id="LkH43tqCNbyHTfC8qqBF-16" value="абонемент" style="html=1;dashed=0;whitespace=wrap;shape=partialRectangle;right=0;fillColor=#f8cecc;strokeColor=#b85450;" parent="1" vertex="1">
          <mxGeometry x="163" y="723.5" width="100" height="30" as="geometry" />
        </mxCell>
        <mxCell id="Q9Fp-aHvoXJ1NznwTfLz-1" value="" style="rhombus;whiteSpace=wrap;html=1;fillColor=#fff2cc;strokeColor=#d6b656;" parent="1" vertex="1">
          <mxGeometry x="-110" y="245" width="66" height="50" as="geometry" />
        </mxCell>
        <mxCell id="Q9Fp-aHvoXJ1NznwTfLz-2" value="регистрация" style="rounded=0;whiteSpace=wrap;html=1;hachureGap=4;pointerEvents=0;strokeWidth=1;fillColor=#fff2cc;strokeColor=#d6b656;" parent="1" vertex="1">
          <mxGeometry y="216" width="110" height="40" as="geometry" />
        </mxCell>
        <mxCell id="Q9Fp-aHvoXJ1NznwTfLz-3" value="" style="endArrow=classic;html=1;rounded=0;entryX=0;entryY=0.5;entryDx=0;entryDy=0;" parent="1" source="lHqvFT1bvPYRfDelncX7-4" target="Q9Fp-aHvoXJ1NznwTfLz-1" edge="1">
          <mxGeometry width="50" height="50" relative="1" as="geometry">
            <mxPoint x="331" y="200" as="sourcePoint" />
            <mxPoint x="381" y="150" as="targetPoint" />
          </mxGeometry>
        </mxCell>
        <mxCell id="Q9Fp-aHvoXJ1NznwTfLz-6" value="" style="endArrow=classic;html=1;rounded=0;entryX=1;entryY=0.5;entryDx=0;entryDy=0;" parent="1" source="hRQEvWgmlyqltlo27F5b-12" target="tqRiBWsgFwQO4ad9vg3l-2" edge="1">
          <mxGeometry width="50" height="50" relative="1" as="geometry">
            <mxPoint x="540" y="190" as="sourcePoint" />
            <mxPoint x="610" y="240" as="targetPoint" />
          </mxGeometry>
        </mxCell>
        <mxCell id="-6DadGu_WhrOCrPKGqgH-2" style="rounded=0;orthogonalLoop=1;jettySize=auto;html=1;exitX=0.5;exitY=1;exitDx=0;exitDy=0;" parent="1" source="tqRiBWsgFwQO4ad9vg3l-2" target="hRQEvWgmlyqltlo27F5b-6" edge="1">
          <mxGeometry relative="1" as="geometry">
            <mxPoint x="493" y="269" as="sourcePoint" />
          </mxGeometry>
        </mxCell>
        <mxCell id="LkH43tqCNbyHTfC8qqBF-12" style="edgeStyle=orthogonalEdgeStyle;rounded=1;orthogonalLoop=1;jettySize=auto;html=1;entryX=0.75;entryY=0;entryDx=0;entryDy=0;endArrow=classic;endFill=1;jumpStyle=arc;jumpSize=12;" parent="1" source="LkH43tqCNbyHTfC8qqBF-7" target="hRQEvWgmlyqltlo27F5b-34" edge="1">
          <mxGeometry relative="1" as="geometry" />
        </mxCell>
        <mxCell id="hRQEvWgmlyqltlo27F5b-12" value="абонемент" style="html=1;dashed=0;whitespace=wrap;shape=partialRectangle;right=0;fontSize=12;strokeWidth=1;fillColor=#f8cecc;strokeColor=#b85450;" parent="1" vertex="1">
          <mxGeometry x="141" y="289" width="100" height="30" as="geometry" />
        </mxCell>
        <mxCell id="-6DadGu_WhrOCrPKGqgH-14" style="edgeStyle=orthogonalEdgeStyle;rounded=1;jumpStyle=arc;jumpSize=12;orthogonalLoop=1;jettySize=auto;html=1;" parent="1" source="-6DadGu_WhrOCrPKGqgH-13" target="hRQEvWgmlyqltlo27F5b-48" edge="1">
          <mxGeometry relative="1" as="geometry" />
        </mxCell>
        <mxCell id="-6DadGu_WhrOCrPKGqgH-13" value="новый пользователь" style="html=1;dashed=0;whitespace=wrap;shape=partialRectangle;right=0;fontSize=12;strokeWidth=1;fillColor=#f8cecc;strokeColor=#b85450;" parent="1" vertex="1">
          <mxGeometry x="132.5" y="851" width="161" height="30" as="geometry" />
        </mxCell>
        <mxCell id="-6DadGu_WhrOCrPKGqgH-16" value="" style="rhombus;whiteSpace=wrap;html=1;strokeWidth=1;fillColor=#e1d5e7;strokeColor=#9673a6;" parent="1" vertex="1">
          <mxGeometry x="80" y="646" width="50" height="50" as="geometry" />
        </mxCell>
        <mxCell id="-6DadGu_WhrOCrPKGqgH-25" style="edgeStyle=orthogonalEdgeStyle;rounded=1;jumpStyle=arc;jumpSize=12;orthogonalLoop=1;jettySize=auto;html=1;exitX=0.5;exitY=1;exitDx=0;exitDy=0;" parent="1" source="-6DadGu_WhrOCrPKGqgH-22" target="LkH43tqCNbyHTfC8qqBF-16" edge="1">
          <mxGeometry relative="1" as="geometry">
            <Array as="points">
              <mxPoint y="739" />
            </Array>
          </mxGeometry>
        </mxCell>
        <mxCell id="-6DadGu_WhrOCrPKGqgH-22" value="продление" style="rounded=0;whiteSpace=wrap;html=1;strokeWidth=1;fillColor=#e1d5e7;strokeColor=#9673a6;" parent="1" vertex="1">
          <mxGeometry x="-60" y="651" width="120" height="40" as="geometry" />
        </mxCell>
        <mxCell id="-6DadGu_WhrOCrPKGqgH-23" value="отказ в продлении" style="rounded=0;whiteSpace=wrap;html=1;strokeWidth=1;fillColor=#e1d5e7;strokeColor=#9673a6;" parent="1" vertex="1">
          <mxGeometry x="-60" y="600" width="120" height="40" as="geometry" />
        </mxCell>
        <mxCell id="-6DadGu_WhrOCrPKGqgH-31" value="" style="rhombus;whiteSpace=wrap;html=1;fillColor=#f5f5f5;strokeColor=#666666;fontColor=#333333;" parent="1" vertex="1">
          <mxGeometry x="1004.5" y="274" width="57" height="50" as="geometry" />
        </mxCell>
        <mxCell id="tqRiBWsgFwQO4ad9vg3l-2" value="вход в личный кабинет" style="rounded=0;whiteSpace=wrap;html=1;hachureGap=4;pointerEvents=0;strokeWidth=1;fillColor=#fff2cc;strokeColor=#d6b656;" vertex="1" parent="1">
          <mxGeometry x="5" y="284" width="100" height="40" as="geometry" />
        </mxCell>
        <mxCell id="tqRiBWsgFwQO4ad9vg3l-3" value="" style="endArrow=classic;html=1;rounded=0;exitX=0.5;exitY=1;exitDx=0;exitDy=0;entryX=0.5;entryY=0;entryDx=0;entryDy=0;" edge="1" parent="1" source="Q9Fp-aHvoXJ1NznwTfLz-2" target="tqRiBWsgFwQO4ad9vg3l-2">
          <mxGeometry width="50" height="50" relative="1" as="geometry">
            <mxPoint x="610.5" y="105" as="sourcePoint" />
            <mxPoint x="550" y="230" as="targetPoint" />
          </mxGeometry>
        </mxCell>
        <mxCell id="tqRiBWsgFwQO4ad9vg3l-4" value="" style="endArrow=classic;html=1;rounded=0;exitX=0.5;exitY=1;exitDx=0;exitDy=0;entryX=0;entryY=0.5;entryDx=0;entryDy=0;" edge="1" parent="1" source="Q9Fp-aHvoXJ1NznwTfLz-1" target="tqRiBWsgFwQO4ad9vg3l-2">
          <mxGeometry width="50" height="50" relative="1" as="geometry">
            <mxPoint x="500" y="270" as="sourcePoint" />
            <mxPoint x="550" y="220" as="targetPoint" />
            <Array as="points">
              <mxPoint x="-77" y="304" />
            </Array>
          </mxGeometry>
        </mxCell>
        <mxCell id="tqRiBWsgFwQO4ad9vg3l-5" value="&lt;font face=&quot;Verdana&quot;&gt;лента новостей&lt;/font&gt;" style="rounded=0;whiteSpace=wrap;html=1;strokeWidth=1;fillColor=#e1d5e7;strokeColor=#9673a6;" vertex="1" parent="1">
          <mxGeometry x="409" y="870" width="104" height="40" as="geometry" />
        </mxCell>
        <mxCell id="tqRiBWsgFwQO4ad9vg3l-6" value="" style="endArrow=classic;html=1;rounded=0;exitX=0.5;exitY=0;exitDx=0;exitDy=0;entryX=0.5;entryY=1;entryDx=0;entryDy=0;" edge="1" parent="1" source="hRQEvWgmlyqltlo27F5b-78" target="tqRiBWsgFwQO4ad9vg3l-5">
          <mxGeometry width="50" height="50" relative="1" as="geometry">
            <mxPoint x="500" y="650" as="sourcePoint" />
            <mxPoint x="550" y="600" as="targetPoint" />
          </mxGeometry>
        </mxCell>
        <mxCell id="tqRiBWsgFwQO4ad9vg3l-7" value="" style="endArrow=classic;html=1;rounded=0;exitX=0.5;exitY=1;exitDx=0;exitDy=0;entryX=0.5;entryY=0;entryDx=0;entryDy=0;" edge="1" parent="1" source="hRQEvWgmlyqltlo27F5b-67" target="tqRiBWsgFwQO4ad9vg3l-5">
          <mxGeometry width="50" height="50" relative="1" as="geometry">
            <mxPoint x="500" y="650" as="sourcePoint" />
            <mxPoint x="550" y="600" as="targetPoint" />
          </mxGeometry>
        </mxCell>
        <mxCell id="tqRiBWsgFwQO4ad9vg3l-10" value="" style="endArrow=classic;html=1;rounded=0;exitX=0;exitY=0.5;exitDx=0;exitDy=0;entryX=1;entryY=0.5;entryDx=0;entryDy=0;" edge="1" parent="1" source="hRQEvWgmlyqltlo27F5b-19" target="hRQEvWgmlyqltlo27F5b-6">
          <mxGeometry width="50" height="50" relative="1" as="geometry">
            <mxPoint x="190" y="450" as="sourcePoint" />
            <mxPoint x="240" y="400" as="targetPoint" />
          </mxGeometry>
        </mxCell>
        <mxCell id="tqRiBWsgFwQO4ad9vg3l-12" value="" style="endArrow=classic;html=1;rounded=0;exitX=0.5;exitY=0;exitDx=0;exitDy=0;entryX=1;entryY=0.5;entryDx=0;entryDy=0;shadow=1;jumpStyle=arc;" edge="1" parent="1" source="LkH43tqCNbyHTfC8qqBF-7" target="hRQEvWgmlyqltlo27F5b-8">
          <mxGeometry width="50" height="50" relative="1" as="geometry">
            <mxPoint x="170" y="620" as="sourcePoint" />
            <mxPoint x="220" y="570" as="targetPoint" />
            <Array as="points">
              <mxPoint x="595" y="432" />
            </Array>
          </mxGeometry>
        </mxCell>
        <mxCell id="tqRiBWsgFwQO4ad9vg3l-13" value="" style="endArrow=classic;html=1;rounded=0;shadow=1;jumpStyle=arc;exitX=0.5;exitY=0;exitDx=0;exitDy=0;entryX=1;entryY=0.5;entryDx=0;entryDy=0;" edge="1" parent="1" source="-6DadGu_WhrOCrPKGqgH-16" target="-6DadGu_WhrOCrPKGqgH-23">
          <mxGeometry width="50" height="50" relative="1" as="geometry">
            <mxPoint x="160" y="840" as="sourcePoint" />
            <mxPoint x="210" y="790" as="targetPoint" />
            <Array as="points">
              <mxPoint x="105" y="620" />
            </Array>
          </mxGeometry>
        </mxCell>
        <mxCell id="tqRiBWsgFwQO4ad9vg3l-15" value="" style="endArrow=classic;html=1;rounded=0;shadow=1;jumpStyle=arc;exitX=0;exitY=1;exitDx=0;exitDy=0;entryX=0;entryY=0.5;entryDx=0;entryDy=0;" edge="1" parent="1" source="Q9Fp-aHvoXJ1NznwTfLz-1" target="tqRiBWsgFwQO4ad9vg3l-5">
          <mxGeometry width="50" height="50" relative="1" as="geometry">
            <mxPoint x="-140" y="520" as="sourcePoint" />
            <mxPoint x="-280" y="890" as="targetPoint" />
            <Array as="points">
              <mxPoint x="-93" y="890" />
            </Array>
          </mxGeometry>
        </mxCell>
        <mxCell id="tqRiBWsgFwQO4ad9vg3l-17" value="" style="endArrow=classic;html=1;rounded=0;shadow=1;jumpStyle=arc;entryX=1;entryY=0.5;entryDx=0;entryDy=0;exitX=0;exitY=0.5;exitDx=0;exitDy=0;" edge="1" parent="1" source="-6DadGu_WhrOCrPKGqgH-16" target="-6DadGu_WhrOCrPKGqgH-22">
          <mxGeometry width="50" height="50" relative="1" as="geometry">
            <mxPoint x="-10" y="833.5" as="sourcePoint" />
            <mxPoint x="40" y="783.5" as="targetPoint" />
          </mxGeometry>
        </mxCell>
        <mxCell id="tqRiBWsgFwQO4ad9vg3l-18" value="" style="endArrow=classic;html=1;rounded=0;shadow=1;jumpStyle=arc;exitX=0.5;exitY=0;exitDx=0;exitDy=0;entryX=0.5;entryY=1;entryDx=0;entryDy=0;" edge="1" parent="1" source="hRQEvWgmlyqltlo27F5b-71" target="hRQEvWgmlyqltlo27F5b-58">
          <mxGeometry width="50" height="50" relative="1" as="geometry">
            <mxPoint x="160" y="430" as="sourcePoint" />
            <mxPoint x="210" y="380" as="targetPoint" />
          </mxGeometry>
        </mxCell>
        <mxCell id="tqRiBWsgFwQO4ad9vg3l-19" value="" style="endArrow=classic;html=1;rounded=0;shadow=1;jumpStyle=arc;exitX=0;exitY=0.5;exitDx=0;exitDy=0;entryX=1;entryY=0.5;entryDx=0;entryDy=0;" edge="1" parent="1" source="LkH43tqCNbyHTfC8qqBF-13" target="hRQEvWgmlyqltlo27F5b-58">
          <mxGeometry width="50" height="50" relative="1" as="geometry">
            <mxPoint x="160" y="430" as="sourcePoint" />
            <mxPoint x="210" y="380" as="targetPoint" />
          </mxGeometry>
        </mxCell>
        <mxCell id="tqRiBWsgFwQO4ad9vg3l-20" value="" style="endArrow=classic;html=1;rounded=0;shadow=1;jumpStyle=arc;exitX=0.5;exitY=0;exitDx=0;exitDy=0;entryX=0;entryY=0.5;entryDx=0;entryDy=0;" edge="1" parent="1" source="Q9Fp-aHvoXJ1NznwTfLz-1" target="Q9Fp-aHvoXJ1NznwTfLz-2">
          <mxGeometry width="50" height="50" relative="1" as="geometry">
            <mxPoint x="-50" y="430" as="sourcePoint" />
            <mxPoint y="380" as="targetPoint" />
            <Array as="points">
              <mxPoint x="-77" y="236" />
            </Array>
          </mxGeometry>
        </mxCell>
      </root>
    </mxGraphModel>
  </diagram>
</mxfile>
